<svg xmlns="http://www.w3.org/2000/svg" viewBox="0 0 1200 1200">
    <style>
        path.bc {
            fill: black;
        }
        @media (prefers-color-scheme: dark) {
            path.bc { fill: #F8E81C; }
            path.pst { fill: black; }
        }
    </style>
    <g fill="none" fill-rule="evenodd">
        <path class="bc" fill="#000" d="M778 118c-25 0-51 3-79 9a433 433 0 0 1 112 67c10 11 13 21 9 31-14 24-37 35-72 33-22-2-49-9-79-23l-25-13c-28-13-49-23-65-28-25-8-47-11-68-7-42 8-76 49-103 125 39-11 73-15 102-12 40 3 68 20 84 50 9 17 15 38 16 62 2 24-1 45-9 63-9 22-23 37-42 45-23 9-46 9-69 0-14-6-34-18-59-37l-35-25c-36-19-64-32-86-37-37-9-63 0-78 27-6 11-10 23-11 38v77c-2 13-5 26-10 36-9 18-23 30-40 38-14 6-32 8-53 8-13 0-31-2-55-6l-9-1 7 7 32 29c32 25 62 35 90 31a125 125 0 0 0 68-40l19-20 18-21c7-7 15-12 24-15 23-6 47-4 71 8s45 30 61 53c18 25 25 50 23 76-1 24-16 46-44 67-15 10-39 18-71 22 19 26 45 42 78 49 22 5 55 5 101 0 14-1 37-5 68-14 25-7 45-12 58-13 21-3 40-3 56 1 21 4 34 14 39 29 5 13 4 28-2 45-7 16-18 30-32 42-40 32-97 45-169 39 46 23 89 40 130 51 72 21 138 24 197 8 54-13 102-42 143-85 37-39 67-89 89-148a695 695 0 0 0-45-550c-33-54-72-96-118-124-50-32-106-48-167-47Z"/>
        <path class="pst" fill="#F8E81C" d="M997 333c9 0 15 3 20 9a522 522 0 0 1 82 276c0 49-7 98-21 145-14 48-36 92-66 132-3 5-7 8-13 10-7 1-12 0-16-5-5-4-8-9-9-13-2-5-1-10 2-17a427 427 0 0 0 60-384c-12-43-31-82-57-119-3-5-4-11-2-17 1-6 4-10 8-12l12-5Zm-80 54c7 0 13 3 18 10a389 389 0 0 1-3 442c-3 5-8 9-14 10-6 2-11 1-16-3-4-4-7-9-9-15-1-6 0-11 3-16a350 350 0 0 0 2-394c-3-4-4-10-3-16 2-6 5-11 9-14 5-3 9-4 13-4Zm-67 67c32 49 49 103 49 163s-17 114-51 164c-4 6-9 9-14 10-5 2-10 1-16-3-5-4-8-9-9-15s0-11 2-17c30-41 45-87 45-138s-14-97-42-140c-4-5-5-10-4-15 2-6 4-10 8-14s9-5 14-5c7 0 13 3 18 10Z"/>
    </g>
</svg>
